solid STL ascii
  facet normal  1.000000e+00  0.000000e+00 -0.000000e+00
    outer loop
      vertex   2.250000e+01  1.500000e+01  0.000000e+00
      vertex   2.250000e+01  1.500000e+01  1.800000e+02
      vertex   2.250000e+01 -1.500000e+01  0.000000e+00
    endloop
  endfacet
  facet normal  1.000000e+00  0.000000e+00  0.000000e+00
    outer loop
      vertex   2.250000e+01 -1.500000e+01  0.000000e+00
      vertex   2.250000e+01  1.500000e+01  1.800000e+02
      vertex   2.250000e+01 -1.500000e+01  1.800000e+02
    endloop
  endfacet
  facet normal  0.000000e+00 -1.000000e+00  0.000000e+00
    outer loop
      vertex  -2.250000e+01 -1.500000e+01  1.800000e+02
      vertex  -2.250000e+01 -1.500000e+01  0.000000e+00
      vertex   2.250000e+01 -1.500000e+01  1.800000e+02
    endloop
  endfacet
  facet normal  0.000000e+00 -1.000000e+00 -0.000000e+00
    outer loop
      vertex   2.250000e+01 -1.500000e+01  1.800000e+02
      vertex  -2.250000e+01 -1.500000e+01  0.000000e+00
      vertex   2.250000e+01 -1.500000e+01  0.000000e+00
    endloop
  endfacet
  facet normal  0.000000e+00  0.000000e+00  1.000000e+00
    outer loop
      vertex   2.250000e+01  1.500000e+01  1.800000e+02
      vertex  -2.250000e+01  1.500000e+01  1.800000e+02
      vertex   2.250000e+01 -1.500000e+01  1.800000e+02
    endloop
  endfacet
  facet normal  0.000000e+00  0.000000e+00  1.000000e+00
    outer loop
      vertex   2.250000e+01 -1.500000e+01  1.800000e+02
      vertex  -2.250000e+01  1.500000e+01  1.800000e+02
      vertex  -2.250000e+01 -1.500000e+01  1.800000e+02
    endloop
  endfacet
  facet normal  0.000000e+00  1.000000e+00  0.000000e+00
    outer loop
      vertex  -2.250000e+01  1.500000e+01  0.000000e+00
      vertex  -2.250000e+01  1.500000e+01  1.800000e+02
      vertex   2.250000e+01  1.500000e+01  0.000000e+00
    endloop
  endfacet
  facet normal  0.000000e+00  1.000000e+00 -0.000000e+00
    outer loop
      vertex   2.250000e+01  1.500000e+01  0.000000e+00
      vertex  -2.250000e+01  1.500000e+01  1.800000e+02
      vertex   2.250000e+01  1.500000e+01  1.800000e+02
    endloop
  endfacet
  facet normal -1.000000e+00 -0.000000e+00 -0.000000e+00
    outer loop
      vertex  -2.250000e+01  1.500000e+01  1.800000e+02
      vertex  -2.250000e+01  1.500000e+01  0.000000e+00
      vertex  -2.250000e+01 -1.500000e+01  1.800000e+02
    endloop
  endfacet
  facet normal -1.000000e+00  0.000000e+00  0.000000e+00
    outer loop
      vertex  -2.250000e+01 -1.500000e+01  1.800000e+02
      vertex  -2.250000e+01  1.500000e+01  0.000000e+00
      vertex  -2.250000e+01 -1.500000e+01  0.000000e+00
    endloop
  endfacet
endsolid ascii
